<?xml version="1.0" encoding="utf-8"?>
<!-- Generator: Adobe Illustrator 23.0.3, SVG Export Plug-In . SVG Version: 6.00 Build 0)  -->
<svg id="Ebene_1" style="enable-background:new 0 0 70 70;" version="1.1" viewBox="0 0 70 70" x="0px"
	 xml:space="preserve" xmlns="http://www.w3.org/2000/svg" y="0px">
<style type="text/css">
	.st0 {
		fill: #606060;
	}
</style>
	<g>
	<path class="st0" d="M35,2c18.2,0,33,14.8,33,33S53.2,68,35,68S2,53.2,2,35S16.8,2,35,2 M35,0C15.7,0,0,15.7,0,35s15.7,35,35,35
		s35-15.7,35-35S54.3,0,35,0L35,0z"/>
</g>
	<g>
	<path class="st0" d="M43.3,17.7c-1.6-1-4-1.9-7.2-1.9c-3.5,0-6.2,1.7-6.2,4.4c0,3.1,3,4.3,7.5,5.8c5.5,1.8,9.8,4.1,9.8,9.5
		c0,3.1-1.5,5.4-3.9,7.3c1,0.8,2.3,2.8,2.3,5.3c0,6.3-5.8,9-11.4,9c-3.7,0-7.1-0.8-9.4-2.5l1.4-3.4c1.4,1,4.4,2.5,7.9,2.5
		c3.8,0,6.7-1.7,6.7-4.9c0-2.8-1.7-4.3-7.3-6.2c-6.2-2.1-10.4-4.3-10.4-9.5c0-2.3,1.2-5,4.4-7c-1.2-1-2.2-3-2.2-5
		c0-5.3,4.9-8.5,11.1-8.5c3.4,0,6.2,0.8,8.3,2L43.3,17.7z M33.7,38c3.1,1.1,5.5,2,6.8,2.9c1.5-1.1,2.3-2.8,2.3-4.6
		c0-2.3-1.4-4.2-5.3-5.6c-2.4-0.9-5.5-1.9-7.4-3.1c-1.9,1.4-2.8,2.9-2.8,4.7C27.3,34.4,28.9,36.2,33.7,38z"/>
</g>
</svg>
