<svg data-name="Ebene 1" id="Ebene_1" viewBox="0 0 720 720" xmlns="http://www.w3.org/2000/svg">
	<defs>
		<style>.cls-1 {
			fill: #fff;
		}

		.cls-2, .cls-4 {
			fill: #c1272d;
		}

		.cls-3 {
			fill: none;
			stroke-width: 23px;
		}

		.cls-3, .cls-5 {
			stroke: #603813;
		}

		.cls-3, .cls-4, .cls-5 {
			stroke-miterlimit: 10;
		}

		.cls-4 {
			stroke: #c1272d;
			stroke-width: 9px;
			fill-rule: evenodd;
		}

		.cls-5 {
			fill: #603813;
		}</style>
	</defs>
	<title>QuestSymbolWeiss</title>
	<path class="cls-1"
		  d="M360,63A297.1,297.1,0,0,1,475.59,633.69,297.1,297.1,0,0,1,244.41,86.31,295.12,295.12,0,0,1,360,63m0-63C161.18,0,0,161.18,0,360S161.18,720,360,720,720,558.82,720,360,558.82,0,360,0Z"/>
	<path class="cls-1"
		  d="M360.5,214a146.5,146.5,0,1,1-103.59,42.91A145.54,145.54,0,0,1,360.5,214m0-63C244.8,151,151,244.8,151,360.5S244.8,570,360.5,570,570,476.2,570,360.5,476.2,151,360.5,151Z"/>
	<circle class="cls-2" cx="359.5" cy="359.5" r="38.5"/>
	<path class="cls-2"
		  d="M359.5,346A13.5,13.5,0,1,1,346,359.5,13.52,13.52,0,0,1,359.5,346m0-50A63.5,63.5,0,1,0,423,359.5,63.5,63.5,0,0,0,359.5,296Z"/>
	<path class="cls-3" d="M668.5,51.5,360,360Z"/>
	<polygon class="cls-4" points="640.79 57.4 642.07 12.42 577.21 73.68 575.85 121.58 640.79 57.4"/>
	<polygon class="cls-4" points="663.53 78.17 708.51 76.85 647.3 141.75 599.41 143.15 663.53 78.17"/>
	<circle class="cls-5" cx="667.5" cy="52.5" r="11"/>
	<circle class="cls-5" cx="359.5" cy="360.5" r="11"/>
</svg>
