<svg id="Ebene_1" data-name="Ebene 1" xmlns="http://www.w3.org/2000/svg" viewBox="0 0 70 70"><defs><style>.cls-1{fill:#788fb9;}.cls-2{fill:#fff;}</style></defs><title>PlusBlau</title><circle class="cls-1" cx="35" cy="35" r="35"/><path class="cls-2" d="M15,39a3.79,3.79,0,0,1-4-3.5A3.78,3.78,0,0,1,15,32H55a3.78,3.78,0,0,1,4,3.5A3.79,3.79,0,0,1,55,39Z" transform="translate(0 0)"/><path class="cls-2" d="M38,55a3.79,3.79,0,0,1-3.5,4A3.78,3.78,0,0,1,31,55V15a3.78,3.78,0,0,1,3.5-4A3.79,3.79,0,0,1,38,15Z" transform="translate(0 0)"/></svg>