<svg data-name="Ebene 1" id="Ebene_1" viewBox="0 0 148.22 171.8" xmlns="http://www.w3.org/2000/svg">
	<defs>
		<style>.cls-1 {
			fill: #778eb8;
		}

		.cls-2 {
			fill: #fefefe;
		}</style>
	</defs>
	<title>Questophant</title>
	<path class="cls-1"
		  d="M959.1,450.91c13.2-.07,25,2.3,36,7.86,15.85,8,26.71,20.51,33.28,36.88a80.18,80.18,0,0,1,5.36,23c1.32,14.68-.34,29-6.08,42.61a68.19,68.19,0,0,1-21.56,28.14c-.72.55-.8.9-.19,1.55,2.33,2.48,4.61,5,6.93,7.48,2.95,3.15,5.86,6.34,8.9,9.4,1.85,1.86,1.61,3.84.83,5.72a10.11,10.11,0,0,1-3.53,4,24,24,0,0,1-11.46,5.08,5,5,0,0,1-4.39-1.38c-6.19-6.37-12.08-13-18.11-19.52-.55-.6-1-1.08-2-.78A82.79,82.79,0,0,1,955,604c-14.8-.78-28.39-5.14-40.36-14-12.15-9-20.07-21.08-24.7-35.39A85.73,85.73,0,0,1,886,530.81a88.25,88.25,0,0,1,4.4-31.61,70.37,70.37,0,0,1,19.7-30.33,69.4,69.4,0,0,1,32.29-16.22A75.2,75.2,0,0,1,959.1,450.91Z"
		  transform="translate(-885.94 -450.9)"/>
	<path class="cls-2"
		  d="M919.15,559.92a52.43,52.43,0,0,1-4.26-9.35c-3.28-9.42-3.87-19.16-3.29-29A59.17,59.17,0,0,1,918.16,497c6.54-12.3,16.8-19.69,30.33-22.47a54,54,0,0,1,30.21,2c12.63,4.69,20.94,13.72,25.71,26.17,3.5,9.16,4.41,18.68,4.09,28.39a64.1,64.1,0,0,1-4.84,23.19c-.72,1.69-1.57,3.32-2.46,5.18a24.8,24.8,0,0,1-1.81-6.16c-.37-2.16-.7-4.33-1-6.51a4.57,4.57,0,0,0-2.84-3.69,12.21,12.21,0,0,0-8.29-.75,14.74,14.74,0,0,0-7.06,3.29c-1.47,1.39-1.87,2.16-1.19,4q3,8.19,6.18,16.33a23.24,23.24,0,0,0,4,6c.16.21.68.37.33.74s-.63-.09-.83-.31c-2.41-2.57-4.78-5.17-7.2-7.73-1.64-1.74-3.26-3.53-5-5.14-2.72-2.49-3.64-5.69-4-9.18-.45-4.19-.14-8.38-.21-12.58,0-2.77-.88-4.09-3.55-4.93a29.28,29.28,0,0,0-11.13-1.08,18.46,18.46,0,0,0-7.16,1.77,3.92,3.92,0,0,0-2.43,3.84q0,6.12.3,12.22a41.13,41.13,0,0,0,2.79,14c1.44,3.45,3.88,6.11,6.36,8.76s5.43,5.2,7.84,8.09c.22.27.56.45.66,1a20.89,20.89,0,0,1-4.38.31c-10.79.2-20.95-2-30-8.18-.8-.55-.87-.87-.19-1.59a26.53,26.53,0,0,0,5.43-9.64q2.26-6.5,4.83-12.88c.74-1.83-.14-2.93-1.32-3.92a16.47,16.47,0,0,0-7.88-3.26,12.39,12.39,0,0,0-6.6.51,5.47,5.47,0,0,0-4,5.1,45.78,45.78,0,0,1-2.39,11.45C919.38,559.42,919.29,559.59,919.15,559.92Z"
		  transform="translate(-885.94 -450.9)"/>
	<path class="cls-2"
		  d="M911.23,580.52c-3.7,0-3.91-.82-3.85-2.42,0-1.19,1.22-1.8,2.14-2.42s2.2-1.3,3.26-2c4.06-2.73,6-6.91,7.65-11.29A89.92,89.92,0,0,0,924,547.91a4.32,4.32,0,0,1,4.49-3.74,16.57,16.57,0,0,1,9.26,2.69c1.56,1.06,1.71,1.42,1.07,3.09-1.83,4.8-3.6,9.62-5.55,14.37a21.63,21.63,0,0,1-8.83,10.28c-2.79,1.74-5.75,3.15-8.67,4.63A12.42,12.42,0,0,1,911.23,580.52Z"
		  transform="translate(-885.94 -450.9)"/>
	<path class="cls-2"
		  d="M991,544.34a5.46,5.46,0,0,1,3.12.48,3.29,3.29,0,0,1,2.31,2.6A91,91,0,0,0,999.84,562a31.33,31.33,0,0,0,4.5,8.66,16.39,16.39,0,0,0,5.69,4.47,11.65,11.65,0,0,1,2.35,1.64,2,2,0,0,1,.73,2.23,1.94,1.94,0,0,1-1.9,1.46,11.38,11.38,0,0,1-6.49-1.24,73.22,73.22,0,0,1-8.87-4.73,23.45,23.45,0,0,1-9.24-11.85q-2.5-6.6-5.1-13.18a1.36,1.36,0,0,1,.3-1.68,10.84,10.84,0,0,1,4.53-2.58A11,11,0,0,1,991,544.34Z"
		  transform="translate(-885.94 -450.9)"/>
</svg>
