<svg id="Ebene_1" data-name="Ebene 1" xmlns="http://www.w3.org/2000/svg" viewBox="0 0 553.54 526.45"><defs><style>.cls-1{fill:#fff;}</style></defs><title>Stern4Weiß</title><path class="cls-1" d="M985,302.55l55.94,113.34,7.67,15.55,17.17,2.5,125.08,18.17-90.51,88.22-12.42,12.11,2.93,17.1,21.37,124.57L1000.36,635.3,985,627.23l-15.36,8.07L857.77,694.11l21.37-124.57,2.93-17.1-12.42-12.11-90.51-88.22,125.08-18.17,17.17-2.5,7.67-15.55L985,302.55M985,228l-85.53,173.3L708.23,429.07,846.61,564,814,754.44l171-89.93,171,89.93L1123.39,564l138.38-134.89-191.24-27.79L985,228Z" transform="translate(-708.23 -227.98)"/></svg>