<svg data-name="Ebene 1" id="Ebene_1" viewBox="0 0 553.54 526.45" xmlns="http://www.w3.org/2000/svg">
	<defs>
		<style>.cls-1 {
			fill: #fff;
		}</style>
	</defs>
	<title>Stern</title>
	<path class="cls-1"
		  d="M985,261.88l72.08,146,3.49,7.07,7.8,1.14,161.17,23.41L1112.92,553.22l-5.65,5.51,1.33,7.77L1136.13,727,992,651.23l-7-3.67-7,3.67L833.87,727,861.4,566.5l1.33-7.77-5.65-5.51L740.46,439.54l161.17-23.41,7.8-1.14,3.49-7.07,72.08-146m0-33.9-85.53,173.3L708.23,429.07,846.61,564,814,754.44l171-89.93,171,89.93L1123.39,564l138.38-134.89-191.24-27.79L985,228Z"
		  transform="translate(-708.23 -227.98)"/>
</svg>
